<svg viewBox="0 0 72 72" xmlns="http://www.w3.org/2000/svg"><path d="m23 23.5244v-7.6181l.8633-.002c.5-.5049 1.1777-.832 1.9326-.8838-.4893-.5342-.7959-1.2392-.7959-2.0205 0-1.6562 1.3438-3 3-3 0-1.6562 1.3438-3 3-3 .8691 0 1.6465.376 2.1934.9668.4228-1.1455 1.5146-1.9668 2.8066-1.9668s2.3838.8213 2.8066 1.9668c.5469-.5908 1.3243-.9668 2.1934-.9668 1.6563 0 3 1.3438 3 3 1.6563 0 3 1.3438 3 3 0 .7813-.3066 1.4863-.7959 2.0205.7559.0518 1.4355.3799 1.9355.8858h.8604v8l-13 10.6181z" fill="#b1cc33"/><path d="m39 15c-.3232 0-.6377.0366-.9443.0952-.9073-1.2641-2.3809-2.0952-4.0557-2.0952-2.1582 0-3.998 1.3672-4.6973 3.2827-.0136.0381-.6435-1.0088-.6572-.9702-.1699.5029-.4141 1.3784-.458 1.9375-.25 3.1563 3.0508 15.751 5.8125 15.751.3232 0 .6377-.0362.9443-.0947.9073 1.2646 2.3809 2.0947 4.0557 2.0947 2.7617 0 4.4063-12.1773 4.4063-14.9385 0-1.3428.375-3.1875-.7344-4.7812-.0117-.0171-.0918 1.2285-.1065 1.2138-.9062-.9228-2.1689-1.4951-3.5654-1.4951z" fill="#ea5a47"/><path d="m43 61c-10.666-11.5977-10.666-30.4023 0-42h2c1.6563 0 3 1.3438 3 3v39c0 2.7617-2.2383 5-5 5h-14c-2.7617 0-5-2.2383-5-5v-39c0-1.6562 1.3438-3 3-3h2c3.4346 3.7344 5.7637 8.2168 6.9863 12.9648" fill="#fcea2b"/><g style="fill:none;stroke:#000;stroke-linecap:round;stroke-linejoin:round;stroke-miterlimit:10;stroke-width:2"><path d="m48.1396 15.9063c-.5-.5059-1.1796-.834-1.9355-.8858.4893-.5342.7959-1.2392.7959-2.0205 0-1.6562-1.3437-3-3-3 0-1.6562-1.3437-3-3-3-.8691 0-1.6465.376-2.1934.9668-.4228-1.1455-1.5146-1.9668-2.8066-1.9668s-2.3838.8213-2.8066 1.9668c-.5469-.5908-1.3243-.9668-2.1934-.9668-1.6562 0-3 1.3438-3 3-1.6562 0-3 1.3438-3 3 0 .7813.3066 1.4863.7959 2.0205-.7549.0518-1.4326.3789-1.9326.8838"/><path d="m35.9805 48.0537c-1.2227 4.7412-3.5508 9.2158-6.9805 12.9463"/><path d="m43 61c-10.666-11.5977-10.666-30.4023 0-42h2c1.6563 0 3 1.3438 3 3v39c0 2.7617-2.2383 5-5 5h-14c-2.7617 0-5-2.2383-5-5v-39c0-1.6562 1.3438-3 3-3h2c3.4346 3.7344 5.7637 8.2168 6.9863 12.9648"/><path d="m41.9873 15.9941c-.833-.6235-1.8662-.9941-2.9873-.9941-.3232 0-.6377.0366-.9443.0952-.9073-1.2641-2.3809-2.0952-4.0557-2.0952-1.9131 0-3.5605 1.0811-4.3975 2.6611"/></g></svg>