<svg viewBox="0 0 72 72" xmlns="http://www.w3.org/2000/svg"><path d="m66.5 24.8516s-1.9062 14.2968-11.4375 14.2968h-38.125c-9.5313 0-11.4375-14.2968-11.4375-14.2968s3.8125 2.8593 30.5 2.8593 30.5-2.8593 30.5-2.8593z" fill="#61b2e4" stroke="#61b2e4" stroke-linecap="round" stroke-linejoin="round" stroke-width="2"/><path d="m40.484 18.304 4.331 2.5-2.732.733-12.5 21.65.732 2.732-5.5 9.527-5.197-3 5.5-9.527 2.732-.732 12.5-21.65z" fill="#a57939"/><g fill="none" stroke="#000" stroke-linecap="round" stroke-linejoin="round" stroke-width="2"><path d="m40.3505 20.5365.134-2.232"/><path d="m41.083 23.269-11.5 19.918.732 2.732-5.5 9.527-5.197-3 5.5-9.527 1.366-.366"/><path d="m40.4845 18.3045 3.4641 2"/><path d="m35.45 39.1484h19.6125c9.5313 0 11.4375-14.2968 11.4375-14.2968s-3.229 2.409-24.4141 2.8034"/><path d="m33.8578 27.7037c-24.7451-.1486-28.3578-2.8521-28.3578-2.8521s1.9062 14.2968 11.4375 14.2968h10.3125"/></g></svg>