<?xml version="1.0" encoding="UTF-8"?>
<svg xmlns="http://www.w3.org/2000/svg" xmlns:xlink="http://www.w3.org/1999/xlink" width="64px" height="64px" viewBox="0 0 64 64" version="1.1">
<defs>
<filter id="alpha" filterUnits="objectBoundingBox" x="0%" y="0%" width="100%" height="100%">
  <feColorMatrix type="matrix" in="SourceGraphic" values="0 0 0 0 1 0 0 0 0 1 0 0 0 0 1 0 0 0 1 0"/>
</filter>
<mask id="mask0">
  <g filter="url(#alpha)">
<rect x="0" y="0" width="64" height="64" style="fill:rgb(0%,0%,0%);fill-opacity:0.101961;stroke:none;"/>
  </g>
</mask>
<clipPath id="clip1">
  <rect x="0" y="0" width="64" height="64"/>
</clipPath>
<g id="surface5" clip-path="url(#clip1)">
<path style=" stroke:none;fill-rule:nonzero;fill:rgb(0%,0%,0%);fill-opacity:1;" d="M 10.441406 47.933594 L 10.441406 16.066406 C 10.441406 14.832031 11.441406 13.828125 12.679688 13.828125 L 3.179688 13.828125 C 1.941406 13.828125 0.9375 14.832031 0.9375 16.066406 L 0.9375 47.933594 C 0.9375 49.167969 1.941406 50.171875 3.179688 50.171875 L 12.679688 50.171875 C 11.441406 50.171875 10.441406 49.167969 10.441406 47.933594 Z M 10.441406 47.933594 "/>
</g>
</defs>
<g id="surface1">
<path style=" stroke:none;fill-rule:nonzero;fill:rgb(40%,73.333333%,41.568627%);fill-opacity:1;" d="M 60.820312 13.828125 L 3.179688 13.828125 C 1.941406 13.828125 0.9375 14.832031 0.9375 16.066406 L 0.9375 47.933594 C 0.9375 49.167969 1.941406 50.171875 3.179688 50.171875 L 60.820312 50.171875 C 62.058594 50.171875 63.0625 49.167969 63.0625 47.933594 L 63.0625 16.066406 C 63.0625 14.832031 62.058594 13.828125 60.820312 13.828125 Z M 60.820312 13.828125 "/>
<path style=" stroke:none;fill-rule:nonzero;fill:rgb(67.843137%,90.196078%,69.019608%);fill-opacity:1;" d="M 57.519531 38.578125 L 57.519531 25.421875 C 53.738281 25.421875 50.671875 22.355469 50.671875 18.574219 L 13.328125 18.574219 C 13.328125 22.355469 10.261719 25.421875 6.480469 25.421875 L 6.480469 38.578125 C 10.261719 38.578125 13.328125 41.644531 13.328125 45.425781 L 50.671875 45.425781 C 50.671875 41.644531 53.738281 38.578125 57.519531 38.578125 Z M 57.519531 38.578125 "/>
<path style=" stroke:none;fill-rule:nonzero;fill:rgb(67.843137%,90.196078%,69.019608%);fill-opacity:1;" d="M 58.945312 19.246094 C 58.945312 20.40625 58.003906 21.347656 56.84375 21.347656 C 55.6875 21.347656 54.746094 20.40625 54.746094 19.246094 C 54.746094 18.089844 55.6875 17.148438 56.84375 17.148438 C 58.003906 17.148438 58.945312 18.089844 58.945312 19.246094 Z M 58.945312 19.246094 "/>
<path style=" stroke:none;fill-rule:nonzero;fill:rgb(67.843137%,90.196078%,69.019608%);fill-opacity:1;" d="M 9.253906 19.246094 C 9.253906 20.40625 8.3125 21.347656 7.152344 21.347656 C 5.996094 21.347656 5.054688 20.40625 5.054688 19.246094 C 5.054688 18.089844 5.996094 17.148438 7.152344 17.148438 C 8.3125 17.148438 9.253906 18.089844 9.253906 19.246094 Z M 9.253906 19.246094 "/>
<path style=" stroke:none;fill-rule:nonzero;fill:rgb(67.843137%,90.196078%,69.019608%);fill-opacity:1;" d="M 58.945312 44.753906 C 58.945312 45.910156 58.003906 46.851562 56.84375 46.851562 C 55.6875 46.851562 54.746094 45.910156 54.746094 44.753906 C 54.746094 43.59375 55.6875 42.652344 56.84375 42.652344 C 58.003906 42.652344 58.945312 43.59375 58.945312 44.753906 Z M 58.945312 44.753906 "/>
<path style=" stroke:none;fill-rule:nonzero;fill:rgb(67.843137%,90.196078%,69.019608%);fill-opacity:1;" d="M 9.253906 44.753906 C 9.253906 45.910156 8.3125 46.851562 7.152344 46.851562 C 5.996094 46.851562 5.054688 45.910156 5.054688 44.753906 C 5.054688 43.59375 5.996094 42.652344 7.152344 42.652344 C 8.3125 42.652344 9.253906 43.59375 9.253906 44.753906 Z M 9.253906 44.753906 "/>
<path style=" stroke:none;fill-rule:nonzero;fill:rgb(40%,73.333333%,41.568627%);fill-opacity:1;" d="M 41.921875 32 C 41.921875 37.480469 37.480469 41.921875 32 41.921875 C 26.519531 41.921875 22.078125 37.480469 22.078125 32 C 22.078125 26.519531 26.519531 22.078125 32 22.078125 C 37.480469 22.078125 41.921875 26.519531 41.921875 32 Z M 41.921875 32 "/>
<use xlink:href="#surface5" mask="url(#mask0)"/>
<path style=" stroke:none;fill-rule:nonzero;fill:rgb(0%,0%,0%);fill-opacity:1;" d="M 60.820312 12.890625 L 20.03125 12.890625 C 19.515625 12.890625 19.09375 13.308594 19.09375 13.828125 C 19.09375 14.34375 19.515625 14.765625 20.03125 14.765625 L 60.820312 14.765625 C 61.539062 14.765625 62.125 15.347656 62.125 16.066406 L 62.125 47.933594 C 62.125 48.652344 61.539062 49.234375 60.820312 49.234375 L 3.179688 49.234375 C 2.460938 49.234375 1.875 48.652344 1.875 47.933594 L 1.875 16.066406 C 1.875 15.347656 2.460938 14.765625 3.179688 14.765625 L 16.28125 14.765625 C 16.800781 14.765625 17.21875 14.34375 17.21875 13.828125 C 17.21875 13.308594 16.800781 12.890625 16.28125 12.890625 L 3.179688 12.890625 C 1.425781 12.890625 0 14.316406 0 16.066406 L 0 47.933594 C 0 49.683594 1.425781 51.109375 3.179688 51.109375 L 60.820312 51.109375 C 62.574219 51.109375 64 49.683594 64 47.933594 L 64 16.066406 C 64 14.316406 62.574219 12.890625 60.820312 12.890625 Z M 60.820312 12.890625 "/>
<path style=" stroke:none;fill-rule:nonzero;fill:rgb(0%,0%,0%);fill-opacity:1;" d="M 23.574219 45.425781 C 23.574219 45.945312 23.996094 46.363281 24.515625 46.363281 L 50.671875 46.363281 C 51.191406 46.363281 51.613281 45.945312 51.613281 45.425781 C 51.613281 42.167969 54.261719 39.515625 57.519531 39.515625 C 58.039062 39.515625 58.457031 39.097656 58.457031 38.578125 L 58.457031 25.421875 C 58.457031 24.902344 58.039062 24.484375 57.519531 24.484375 C 54.261719 24.484375 51.613281 21.832031 51.613281 18.574219 C 51.613281 18.054688 51.191406 17.636719 50.671875 17.636719 L 44.050781 17.636719 C 43.53125 17.636719 43.113281 18.054688 43.113281 18.574219 C 43.113281 19.09375 43.53125 19.511719 44.050781 19.511719 L 49.792969 19.511719 C 50.21875 23.054688 53.039062 25.875 56.582031 26.300781 L 56.582031 37.699219 C 53.039062 38.125 50.21875 40.945312 49.792969 44.488281 L 24.515625 44.488281 C 23.996094 44.488281 23.574219 44.90625 23.574219 45.425781 Z M 23.574219 45.425781 "/>
<path style=" stroke:none;fill-rule:nonzero;fill:rgb(0%,0%,0%);fill-opacity:1;" d="M 40.300781 17.636719 L 13.328125 17.636719 C 12.808594 17.636719 12.390625 18.054688 12.390625 18.574219 C 12.390625 21.832031 9.738281 24.484375 6.480469 24.484375 C 5.960938 24.484375 5.542969 24.902344 5.542969 25.421875 L 5.542969 38.578125 C 5.542969 39.097656 5.960938 39.515625 6.480469 39.515625 C 9.738281 39.515625 12.390625 42.167969 12.390625 45.425781 C 12.390625 45.945312 12.808594 46.363281 13.328125 46.363281 L 20.761719 46.363281 C 21.28125 46.363281 21.699219 45.945312 21.699219 45.425781 C 21.699219 44.90625 21.28125 44.488281 20.761719 44.488281 L 14.207031 44.488281 C 13.78125 40.945312 10.960938 38.125 7.417969 37.699219 L 7.417969 26.300781 C 10.960938 25.875 13.78125 23.054688 14.207031 19.511719 L 40.300781 19.511719 C 40.816406 19.511719 41.238281 19.09375 41.238281 18.574219 C 41.238281 18.058594 40.816406 17.636719 40.300781 17.636719 Z M 40.300781 17.636719 "/>
<path style=" stroke:none;fill-rule:nonzero;fill:rgb(0%,0%,0%);fill-opacity:1;" d="M 56.847656 16.210938 C 55.171875 16.210938 53.808594 17.574219 53.808594 19.246094 C 53.808594 20.921875 55.171875 22.285156 56.847656 22.285156 C 58.519531 22.285156 59.882812 20.921875 59.882812 19.246094 C 59.882812 17.574219 58.519531 16.210938 56.847656 16.210938 Z M 56.847656 20.410156 C 56.207031 20.410156 55.683594 19.886719 55.683594 19.246094 C 55.683594 18.605469 56.207031 18.085938 56.847656 18.085938 C 57.484375 18.085938 58.007812 18.605469 58.007812 19.246094 C 58.007812 19.886719 57.484375 20.410156 56.847656 20.410156 Z M 56.847656 20.410156 "/>
<path style=" stroke:none;fill-rule:nonzero;fill:rgb(0%,0%,0%);fill-opacity:1;" d="M 7.152344 22.285156 C 8.828125 22.285156 10.191406 20.921875 10.191406 19.246094 C 10.191406 17.574219 8.828125 16.210938 7.152344 16.210938 C 5.480469 16.210938 4.117188 17.574219 4.117188 19.246094 C 4.117188 20.921875 5.480469 22.285156 7.152344 22.285156 Z M 7.152344 18.085938 C 7.792969 18.085938 8.316406 18.605469 8.316406 19.246094 C 8.316406 19.886719 7.792969 20.410156 7.152344 20.410156 C 6.515625 20.410156 5.992188 19.886719 5.992188 19.246094 C 5.992188 18.605469 6.515625 18.085938 7.152344 18.085938 Z M 7.152344 18.085938 "/>
<path style=" stroke:none;fill-rule:nonzero;fill:rgb(0%,0%,0%);fill-opacity:1;" d="M 56.847656 41.714844 C 55.171875 41.714844 53.808594 43.078125 53.808594 44.753906 C 53.808594 46.425781 55.171875 47.789062 56.847656 47.789062 C 58.519531 47.789062 59.882812 46.425781 59.882812 44.753906 C 59.882812 43.078125 58.519531 41.714844 56.847656 41.714844 Z M 56.847656 45.914062 C 56.207031 45.914062 55.683594 45.394531 55.683594 44.753906 C 55.683594 44.113281 56.207031 43.589844 56.847656 43.589844 C 57.484375 43.589844 58.007812 44.113281 58.007812 44.753906 C 58.007812 45.394531 57.484375 45.914062 56.847656 45.914062 Z M 56.847656 45.914062 "/>
<path style=" stroke:none;fill-rule:nonzero;fill:rgb(0%,0%,0%);fill-opacity:1;" d="M 7.152344 47.789062 C 8.828125 47.789062 10.191406 46.425781 10.191406 44.753906 C 10.191406 43.078125 8.828125 41.714844 7.152344 41.714844 C 5.480469 41.714844 4.117188 43.078125 4.117188 44.753906 C 4.117188 46.425781 5.480469 47.789062 7.152344 47.789062 Z M 7.152344 43.589844 C 7.792969 43.589844 8.316406 44.113281 8.316406 44.753906 C 8.316406 45.390625 7.792969 45.914062 7.152344 45.914062 C 6.515625 45.914062 5.992188 45.390625 5.992188 44.753906 C 5.992188 44.113281 6.515625 43.589844 7.152344 43.589844 Z M 7.152344 43.589844 "/>
<path style=" stroke:none;fill-rule:nonzero;fill:rgb(0%,0%,0%);fill-opacity:1;" d="M 17.941406 32 C 17.941406 33.160156 17 34.097656 15.839844 34.097656 C 14.683594 34.097656 13.742188 33.160156 13.742188 32 C 13.742188 30.839844 14.683594 29.902344 15.839844 29.902344 C 17 29.902344 17.941406 30.839844 17.941406 32 Z M 17.941406 32 "/>
<path style=" stroke:none;fill-rule:nonzero;fill:rgb(0%,0%,0%);fill-opacity:1;" d="M 50.257812 32 C 50.257812 33.160156 49.316406 34.097656 48.160156 34.097656 C 47 34.097656 46.058594 33.160156 46.058594 32 C 46.058594 30.839844 47 29.902344 48.160156 29.902344 C 49.316406 29.902344 50.257812 30.839844 50.257812 32 Z M 50.257812 32 "/>
<path style=" stroke:none;fill-rule:nonzero;fill:rgb(0%,0%,0%);fill-opacity:1;" d="M 40.796875 27.316406 C 40.320312 27.515625 40.09375 28.066406 40.292969 28.542969 C 40.753906 29.640625 40.984375 30.804688 40.984375 32 C 40.984375 36.953125 36.953125 40.984375 32 40.984375 C 27.046875 40.984375 23.015625 36.953125 23.015625 32 C 23.015625 27.046875 27.046875 23.015625 32 23.015625 C 34.40625 23.015625 36.667969 23.957031 38.367188 25.664062 C 38.734375 26.03125 39.328125 26.03125 39.695312 25.667969 C 40.0625 25.300781 40.0625 24.707031 39.699219 24.339844 C 37.644531 22.277344 34.910156 21.140625 32 21.140625 C 26.011719 21.140625 21.140625 26.011719 21.140625 32 C 21.140625 37.988281 26.011719 42.859375 32 42.859375 C 37.988281 42.859375 42.859375 37.988281 42.859375 32 C 42.859375 30.554688 42.578125 29.148438 42.023438 27.820312 C 41.824219 27.34375 41.277344 27.117188 40.796875 27.316406 Z M 40.796875 27.316406 "/>
<path style=" stroke:none;fill-rule:nonzero;fill:rgb(0%,0%,0%);fill-opacity:1;" d="M 32.15625 38.824219 C 32.535156 38.824219 32.835938 38.527344 32.835938 38.148438 L 32.835938 37.203125 C 34.835938 37.011719 36.191406 35.863281 36.191406 34.128906 C 36.191406 32.441406 35.167969 31.480469 32.773438 30.882812 L 32.773438 27.855469 C 33.308594 27.980469 33.84375 28.21875 34.394531 28.546875 C 34.554688 28.640625 34.710938 28.691406 34.867188 28.691406 C 35.359375 28.691406 35.75 28.3125 35.75 27.824219 C 35.75 27.445312 35.53125 27.207031 35.277344 27.066406 C 34.554688 26.609375 33.765625 26.308594 32.835938 26.199219 L 32.835938 25.851562 C 32.835938 25.472656 32.535156 25.175781 32.15625 25.175781 C 31.78125 25.175781 31.464844 25.472656 31.464844 25.851562 L 31.464844 26.183594 C 29.492188 26.339844 28.152344 27.507812 28.152344 29.195312 C 28.152344 30.976562 29.226562 31.84375 31.527344 32.441406 L 31.527344 35.546875 C 30.660156 35.390625 29.933594 35.027344 29.195312 34.492188 C 29.050781 34.378906 28.863281 34.316406 28.675781 34.316406 C 28.183594 34.316406 27.808594 34.695312 27.808594 35.183594 C 27.808594 35.515625 27.964844 35.765625 28.234375 35.941406 C 29.195312 36.617188 30.28125 37.042969 31.464844 37.171875 L 31.464844 38.148438 C 31.464844 38.527344 31.78125 38.824219 32.15625 38.824219 Z M 32.773438 32.742188 C 33.984375 33.121094 34.332031 33.542969 34.332031 34.238281 C 34.332031 34.996094 33.78125 35.5 32.773438 35.609375 Z M 30.015625 29.082031 C 30.015625 28.390625 30.519531 27.855469 31.527344 27.757812 L 31.527344 30.550781 C 30.3125 30.15625 30.015625 29.746094 30.015625 29.082031 Z M 30.015625 29.082031 "/>
</g>
</svg>
