<svg viewBox="0 0 72 72" xmlns="http://www.w3.org/2000/svg"><path d="m11.9451 60.9583v-4.2183c0-4.9942 5.0078-9 10-9q9 7.5 18 0c1.3682 0 3.1221-.2784 4.3887.2607a11.8771 11.8771 0 0 1 3.2362 2.8121v10.1455" fill="#92d3f5"/><path d="m54.9451 60.9583-1.9375-14.2637.9375-1.25 6-2 5-6a1.4142 1.4142 0 0 0 -2-2l-3 3c-1 1-4 0-7 1s-5 3.2325-5 5v16.5137" fill="#c19a65"/><path d="m19.8857 31c-.1015 7.999 4.0635 14 11 14 7.0635 0 11.0635-6 11.0635-14 0-5-3-10-3-10-8 0-10 3-16 1a17.0768 17.0768 0 0 0 -3.0635 9z" fill="#c19a65"/><path d="m39.2274 19.6878c-7.473 0-8.7162 3.5912-16.36 1.88-3.4041-.7622-1.9182 16.4322-1.9182 16.4322-3 0-4-7-4-14 0-6 5-12 14-12s14 6 14 12c0 7-1 14-4 14 0 0 .717-18.3122-1.7218-18.3122z" fill="#6a462f"/><path d="m11.9451 60v-3c0-4.9941 5.0078-9 10-9q9 7.5 18 0a10.2713 10.2713 0 0 1 4.0029.84" fill="none" stroke="#000" stroke-linecap="round" stroke-linejoin="round" stroke-width="2"/><path d="m36.8181 30a2 2 0 1 1 -2-2 2 2 0 0 1 2 2"/><path d="m28.8181 30a2 2 0 1 1 -2-2 2 2 0 0 1 2 2"/><g fill="none" stroke="#000" stroke-linejoin="round" stroke-width="2"><path d="m27.9451 38a6.5535 6.5535 0 0 0 6 0" stroke-linecap="round"/><path d="m54.9451 60-1.9375-13.3054.9375-1.25 6-2 5-6a1.4142 1.4142 0 0 0 -2-2l-3 3c-1 1-4 0-7 1s-5 3.2325-5 5v15.5554" stroke-linecap="round"/><path d="m20.9492 38c-3 0-4-7-4-14 0-6 5-12 14-12s14 6 14 12c0 7-1 14-4 14" stroke-linecap="round"/><path d="m19.8857 31c-.1015 7.999 4.9365 14 11 14 5.9365 0 11.0635-6 11.0635-14 0-5-3-11-3-11-8 0-10 3-16 1 0 0-3 5-3.0635 10z"/></g></svg>