<svg viewBox="0 0 64 64" xmlns="http://www.w3.org/2000/svg"><path d="m41.994 9.945a10.056 10.056 0 0 0 -19.988 0l-.006.055h.006v1h19.994v-1.055z" fill="#343544"/><path d="m8 57v5.25a.75.75 0 0 0 .75.75h9.25v-6z" fill="#ffddd4"/><path d="m46 57v6h9.25a.75.75 0 0 0 .75-.75v-5.25z" fill="#ffddd4"/><path d="m38 30.24v7.76c-2.59 5.33-9.41 5.33-12 0v-7.76a7.963 7.963 0 0 0 5 1.76h2a7.963 7.963 0 0 0 5-1.76z" fill="#eac2b9"/><path d="m45 23v2a2 2 0 0 1 -2 2h-3.25a8.239 8.239 0 0 0 .25-2v-4h3a2.006 2.006 0 0 1 2 2z" fill="#eac2b9"/><path d="m24.25 27h-3.25a2 2 0 0 1 -2-2v-2a2.006 2.006 0 0 1 2-2h3v4a8.239 8.239 0 0 0 .25 2z" fill="#eac2b9"/><path d="m51.91 42.91-13.91-5.91c-2.59 5.33-9.41 5.33-12 0l-13.91 5.91a10.016 10.016 0 0 0 -6.09 9.21v5.13a.75.75 0 0 0 .75.75h10.25v5h30v-5h10.25a.75.75 0 0 0 .75-.75v-5.13a10.016 10.016 0 0 0 -6.09-9.21z" fill="#494a59"/><path d="m23 17v8a8 8 0 0 0 8 8h2a8 8 0 0 0 8-8v-8z" fill="#ffddd4"/><path d="m17 58h30v1.5h-30z" fill="#343544"/><path d="m58 52.33v1.5h-51.25a.75.75 0 0 1 -.75-.75v-.75z" fill="#343544"/><path d="m57.18 48.17h-50.36a8.969 8.969 0 0 1 .8-1.5h48.76a8.969 8.969 0 0 1 .8 1.5z" fill="#343544"/><path d="m50.95 42.5h-37.9l3.54-1.5h30.82z" fill="#343544"/><rect fill="#494a59" height="8" rx="1" width="24" x="20" y="10"/><g fill="#343544"><path d="m32 15.75a.75.75 0 0 1 -.75-.75v-2a.75.75 0 0 1 1.5 0v2a.75.75 0 0 1 -.75.75z"/><path d="m29 15.75a.75.75 0 0 1 -.75-.75v-2a.75.75 0 0 1 1.5 0v2a.75.75 0 0 1 -.75.75z"/><path d="m26 15.75a.75.75 0 0 1 -.75-.75v-2a.75.75 0 0 1 1.5 0v2a.75.75 0 0 1 -.75.75z"/><path d="m23 15.75a.75.75 0 0 1 -.75-.75v-2a.75.75 0 0 1 1.5 0v2a.75.75 0 0 1 -.75.75z"/><path d="m35 15.75a.75.75 0 0 1 -.75-.75v-2a.75.75 0 0 1 1.5 0v2a.75.75 0 0 1 -.75.75z"/><path d="m38 15.75a.75.75 0 0 1 -.75-.75v-2a.75.75 0 0 1 1.5 0v2a.75.75 0 0 1 -.75.75z"/><path d="m41 15.75a.75.75 0 0 1 -.75-.75v-2a.75.75 0 0 1 1.5 0v2a.75.75 0 0 1 -.75.75z"/><path d="m48.5 50v8h-1.5v-8a.75.75 0 0 1 1.5 0z"/><path d="m17 50v8h-1.5v-8a.75.75 0 0 1 1.5 0z"/></g></svg>