<svg viewBox="0 0 72 72" xmlns="http://www.w3.org/2000/svg"><path d="m16.6168 37.555c.2202-1.4686 1.4818-2.555 2.9668-2.555h13.8328c1.485 0 2.7466 1.0864 2.9668 2.555l2.1 14c.2721 1.8138-1.1327 3.445-2.9668 3.445h-18.0328c-1.8341 0-3.2389-1.6312-2.9668-3.445z" fill="#fff"/><path clip-rule="evenodd" d="m20.7439 35h-1.1603c-1.485 0-2.7466 1.0864-2.9668 2.555l-2.1 14c-.0512.3407-.0431.6751.0159.9933-1.4994-.73-2.5327-2.2685-2.5327-4.0483v-12c0-2.4853 2.0147-4.5 4.5-4.5 1.9593 0 3.6262 1.2522 4.2439 3z" fill="#fff" fill-rule="evenodd"/><path clip-rule="evenodd" d="m18 55h17c1.6569 0 3-1.3431 3-3v-7h-23v7c0 1.6569 1.3431 3 3 3z" fill="#6a462f" fill-rule="evenodd"/><path clip-rule="evenodd" d="m13 12c-.5523 0-1 .4477-1 1v13h31v29h-31v4c0 .5523.4477 1 1 1h46c.5523 0 1-.4477 1-1v-46c0-.5523-.4477-1-1-1z" fill="#fff" fill-rule="evenodd"/><rect fill="#d0cfce" height="20" rx="1" width="4" x="49" y="19"/><circle cx="51.5" cy="46.5" fill="#d22f27" r="2.5" stroke="#d0cfce" stroke-width="2"/><path d="m17 29h19v6h-19z" fill="#fff"/><path d="m19.5836 35c-1.485 0-2.7466 1.0864-2.9668 2.555l-2.1 14c-.0512.3407-.0431.6751.0159.9933-1.4994-.73-2.5327-2.2685-2.5327-4.0483v-12c0-2.4853 2.0147-4.5 4.5-4.5" fill="none" stroke="#000" stroke-linecap="round" stroke-width="2"/><path d="m12 26h-1c0 .5523.4477 1 1 1zm31 0h1c0-.5523-.4477-1-1-1zm0 29v1c.5523 0 1-.4477 1-1zm-31 0v-1c-.5523 0-1 .4477-1 1zm1-42v-2c-1.1046 0-2 .8954-2 2zm0 13v-13h-2v13zm-1 1h31v-2h-31zm30-1v29h2v-29zm1 28h-31v2h31zm-30 5v-4h-2v4zm0 0h-2c0 1.1046.8954 2 2 2zm46 0h-46v2h46zm0 0v2c1.1046 0 2-.8954 2-2zm0-46v46h2v-46zm0 0h2c0-1.1046-.8954-2-2-2zm-46 0h46v-2h-46z"/><g stroke="#000" stroke-width="2"><path d="m12 26h30.5" fill="none"/><path d="m40 26v-13.5" fill="none"/><path d="m12 55h48"/><path d="m51.5 49c-1.3807 0-2.5-1.1193-2.5-2.5s1.1193-2.5 2.5-2.5" fill="none" stroke-linecap="round"/><path d="m16.6168 37.555c.2202-1.4686 1.4818-2.555 2.9668-2.555h13.8328c1.485 0 2.7466 1.0864 2.9668 2.555l2.1 14c.2721 1.8138-1.1327 3.445-2.9668 3.445h-18.0328c-1.8341 0-3.2389-1.6312-2.9668-3.445z" fill="none"/><path d="m17 29h19v6h-19z" fill="none" stroke-linejoin="round"/><path d="m50 20v18" stroke-linecap="round"/><path d="m50 20h2" fill="none" stroke-linecap="round"/><path d="m50 38h2" fill="none" stroke-linecap="round"/><path d="m50 29h2" fill="none" stroke-linecap="round"/></g></svg>