<svg viewBox="0 0 72 72" xmlns="http://www.w3.org/2000/svg"><rect fill="#9b9b9a" height="48" rx="1" width="48" x="12" y="12"/><path d="m24 26h23l-2 8h-19z" fill="#d0cfce"/><circle cx="35" cy="19" fill="#fff" r="4"/><path d="m35 19v-1" stroke="#d22f27" stroke-linecap="round" stroke-width="2"/><path d="m18.1518 15.3582c.3916-.6271 1.3048-.6271 1.6964 0l.37.5924c.1762.2822.4811.4582.8135.4698l.6981.0241c.7389.0256 1.1955.8165.8482 1.4691l-.3281.6167c-.1562.2936-.1562.6458 0 .9394l.3281.6167c.3473.6526-.1093 1.4435-.8482 1.4691l-.6981.0241c-.3324.0116-.6373.1876-.8135.4698l-.37.5924c-.3916.6271-1.3048.6271-1.6964 0l-.37-.5924c-.1762-.2822-.4811-.4582-.8135-.4698l-.6981-.0241c-.7389-.0256-1.1955-.8165-.8482-1.4691l.3281-.6167c.1562-.2936.1562-.6458 0-.9394l-.3281-.6167c-.3473-.6526.1093-1.4435.8482-1.4691l.6981-.0241c.3324-.0116.6373-.1876.8135-.4698z" fill="#a57939"/><path d="m39 28c0 2.2091 7.7909 4 10 4s4-1.7909 4-4-1.7909-4-4-4-10 1.7909-10 4z" fill="#a57939"/><circle cx="53.5" cy="18.5" fill="#d22f27" r="2.5"/><path d="m25 52h20l-2 3h-16z" fill="#fff"/><path clip-rule="evenodd" d="m35 53c3.3137 0 6-4.4772 6-10h-12c0 5.5228 2.6863 10 6 10z" fill="#fff" fill-rule="evenodd"/><path d="m41 43h1c0-.5523-.4477-1-1-1zm-12 0v-1c-.5523 0-1 .4477-1 1zm11 0c0 2.6113-.6371 4.9271-1.6149 6.5566-.9896 1.6494-2.2175 2.4434-3.3851 2.4434v2c2.1461 0 3.9182-1.4446 5.1001-3.4144 1.1939-1.9898 1.8999-4.6741 1.8999-7.5856zm-11 1h12v-2h-12zm6 8c-1.1676 0-2.3955-.794-3.3851-2.4434-.9778-1.6295-1.6149-3.9453-1.6149-6.5566h-2c0 2.9115.706 5.5958 1.8999 7.5856 1.1819 1.9698 2.954 3.4144 5.1001 3.4144z" fill="#fff"/><g stroke-width="2"><circle cx="53.5" cy="18.5" fill="none" r="2.5" stroke="#d0cfce"/><rect fill="none" height="48" rx="1" stroke="#000" stroke-linejoin="round" width="48" x="12" y="12"/><path d="m12 26h12" fill="none" stroke="#000"/><path d="m56 26h4" fill="none" stroke="#000" stroke-linecap="round"/><path d="m12 55h48" stroke="#000"/><path d="m40.5 26h-16.5l2 8h18" fill="none" stroke="#000" stroke-linecap="round" stroke-linejoin="round"/><circle cx="35" cy="19" fill="none" r="4" stroke="#000"/><path d="m30.1996 49c-.7533-1.6713-1.1996-3.7488-1.1996-6h12c0 2.2512-.4463 4.3287-1.1996 6" fill="none" stroke="#000" stroke-linecap="round" stroke-linejoin="round"/><path d="m18.1518 15.3582c.3916-.6271 1.3048-.6271 1.6964 0l.37.5924c.1762.2822.4811.4582.8135.4698l.6981.0241c.7389.0256 1.1955.8165.8482 1.4691l-.3281.6167c-.1562.2936-.1562.6458 0 .9394l.3281.6167c.3473.6526-.1093 1.4435-.8482 1.4691l-.6981.0241c-.3324.0116-.6373.1876-.8135.4698l-.37.5924c-.3916.6271-1.3048.6271-1.6964 0l-.37-.5924c-.1762-.2822-.4811-.4582-.8135-.4698l-.6981-.0241c-.7389-.0256-1.1955-.8165-.8482-1.4691l.3281-.6167c.1562-.2936.1562-.6458 0-.9394l-.3281-.6167c-.3473-.6526.1093-1.4435.8482-1.4691l.6981-.0241c.3324-.0116.6373-.1876.8135-.4698z" fill="none" stroke="#000"/><path d="m39 28c0 2.2091 7.7909 4 10 4s4-1.7909 4-4-1.7909-4-4-4-10 1.7909-10 4z" fill="none" stroke="#000"/><path d="m53.5 21c-1.3807 0-2.5-1.1193-2.5-2.5s1.1193-2.5 2.5-2.5" fill="none" stroke="#000" stroke-linecap="round"/><path d="m25 52h20l-2 3h-16z" fill="none" stroke="#000" stroke-linejoin="round"/></g></svg>