<svg viewBox="0 0 72 72" xmlns="http://www.w3.org/2000/svg"><path d="m16.6974 58.8529s-.9644-3.8571-.1756-7.6612c.7007-3.3792 4.6186-7.2388 10.2087-7.2388 3.1918 2.1279 5.5264 4.5985 8.6 4.5922h-.125c3.0736.0063 6.308-1.5642 9.4999-3.6922 11.5647-.0346 10.009 13.9 10.24 14" fill="#fff"/><path d="m44.5989 49.8475c4.2663 2.3224 4.3828 6.254 4.9068 9.004h5.1128s1.6601-4.6027.1076-8.7835c-1.1542-3.1082-4.4418-6.1174-9.6076-6.1165" fill="#d0cfce"/><path d="m50.2688 16.1272c.6 1.14.42 2.53-.4 3.52l-2.24 2.72-.09.06c-1.02-1.56-2.34-2.5-2.34-2.5l-.04-.05c.49-.35.93-.76 1.31-1.21h-21.07c.33.33.7.64 1.1.93l-.02.03s-1.2.91-2.17 2.4l-.24-.15-1.85-2.23c-.82-.99-1-2.38-.4-3.52 1.37-2.58 4.98-6.72 14.23-7.28 9.25.56 12.86 4.7 14.22 7.28z" fill="#3f3f3f"/><path d="m33.9488 22.2272c-2.82-.33-5.51-1.23-7.45-2.63-.4-.29-.77-.6-1.1-.93h21.07c-.38.45-.82.86-1.31 1.21-1.08.82-2.38 1.43-3.82 1.83-2.28.65-4.88.81-7.39.52z" fill="#3f3f3f"/><path d="m33.0349 18.0845c0-1.6553 1.3448-3 3-3 1.6553 0 3 1.3447 3 3" fill="#d0cfce"/><path d="m35.7441 50.1755 3.7747 8.6768h-3.7747-3.9746z" fill="#3f3f3f"/><path d="m33.3735 48.7295s-1.2063 5.0369 2.3073 5.0369 2.3073-5.0369 2.3073-5.0369" fill="#3f3f3f"/><path d="m46.5073 41.9582c6.2358-.6113 8.387-3.307 8.387-3.307l-5.9082-.6003c8.0702-8.437-3.3737-16.8852-3.3737-16.8852h-1.4614l-7.1649 1.5887-8.9561-1.5887h-1.8351s-11.444 8.4482-3.3737 16.8852l-5.6247.6003s1.8674 2.6957 8.1037 3.307c0 1.256 21.2071 1.256 21.2071 0z" fill="#6a462f"/><g fill="#c19a65"><path d="m16.7583 44.3515h6.9637v3.8501h-6.9637z"/><path d="m47.7083 44.3515h6.9637v3.8501h-6.9637z"/><path d="m36 22.3618s6.035-.5829 6.035-.5829 5.338 5.4276 5.2303 6.948c0 7.8277-5.0765 14.1733-11.3386 14.1733s-11.3386-6.3456-11.3386-14.1733c-.1953-4.1264 11.4119-6.3651 11.4119-6.3651z"/></g><path d="m42.035 26.8457c0 1.1045-.8965 2-2 2s-2-.8955-2-2c0-1.1035.8965-2 2-2s2 .8965 2 2"/><path d="m34.035 26.8457c0 1.1045-.8965 2-2 2s-2-.8955-2-2c0-1.1035.8965-2 2-2s2 .8965 2 2"/><path d="m36.0349 36.8481c-1.1518 0-2.3037-.2861-3.4473-.8579-.4941-.247-.6943-.8476-.4472-1.3418.2466-.4936.8462-.6943 1.3418-.4472 1.7177.8593 3.3877.8593 5.1054 0 .4947-.2471 1.0948-.0464 1.3418.4472.2471.4942.0469 1.0948-.4472 1.3418-1.1436.5718-2.2954.8579-3.4473.8579z"/><path d="m36.0352 43.3799c-6.8038 0-12.3389-6.8067-12.3389-15.1734 0-.5522.4473-1 1-1s1 .4478 1 1c0 7.2642 4.6377 13.1734 10.3389 13.1734 5.7002 0 10.3378-5.9092 10.3378-13.1734 0-.5522.4473-1 1-1 .5528 0 1 .4478 1 1 0 8.3667-5.5351 15.1734-12.3378 15.1734z"/><path d="m36.3535 23.4863c-4.6972 0-9.207-1.5288-11.6689-3.9951-.2852-.2861-.3701-.7163-.2158-1.0898.1552-.3731.5195-.6167.9238-.6167h21.0683c.3897 0 .7442.2265.9073.58.164.3536.1074.7706-.1455 1.0674-2.0313 2.3921-5.6788 3.8633-10.0059 4.0371-.2881.0113-.5762.0171-.8633.0171zm-7.8242-3.7016c2.333 1.1792 5.4336 1.8139 8.6074 1.686 2.5635-.103 4.8272-.6978 6.5381-1.686z"/><path d="m47.8242 23.2305c-.2236 0-.4492-.0752-.6357-.229-.4258-.3521-.4864-.9825-.1338-1.4082l2.0371-2.4644c.5771-.6987.6885-1.6465.2832-2.4141-1.2051-2.2846-4.54-6.1943-13.3398-6.7504-8.7989.5561-12.1348 4.4658-13.3409 6.7504-.4052.7671-.2939 1.7149.2842 2.4141l1.8633 2.2549c.3525.4258.292 1.0561-.1338 1.4082-.4267.353-1.0557.291-1.4072-.1338l-1.8633-2.2549c-1.0947-1.3242-1.2949-3.1382-.5127-4.622 1.4053-2.6612 5.2285-7.2159 15.0488-7.8169.041-.003.0821-.003.1231 0 9.8222.6015 13.6435 5.1557 15.0478 7.8169.7832 1.4843.5821 3.2983-.5117 4.622l-2.0371 2.4644c-.1973.2392-.4834.3628-.7715.3628z"/><path d="m25.293 42.4375c-.0323 0-.0655-.002-.0987-.0049-6.6201-.6484-8.7402-3.6064-8.8281-3.7324-.2012-.29-.2344-.6641-.0869-.9854.1465-.3212.4521-.541.8027-.5781l3.7676-.4023c-1.4463-2.0137-2.0791-4.1758-1.8828-6.4483.5039-5.8623 6.377-10.2607 6.627-10.4453.4443-.3271 1.0693-.2339 1.3974.2105.3281.4433.2344 1.0693-.209 1.3979-.0537.0401-5.4023 4.0586-5.8242 9.0156-.1904 2.2422.6768 4.3868 2.5781 6.3741.2637.2754.3477.6767.2168 1.0351-.1308.3574-.4541.6104-.833.6504l-3.1992.3418c1.1504.6318 2.9619 1.3106 5.6689 1.5762.5499.0537.9512.543.8975 1.0928-.0508.5166-.4853.9023-.9941.9023z"/><path d="m46.499 42.4375c-.5088 0-.9433-.3857-.9941-.9023-.0537-.5498.3476-1.0391.8974-1.0928 2.6993-.2647 4.5733-.9414 5.7969-1.5791l-3.3222-.3379c-.3799-.0391-.7051-.291-.837-.6494-.1318-.3584-.0478-.7608.2159-1.0371 1.9033-1.9893 2.7705-4.1368 2.5771-6.3819-.4277-4.9707-5.7685-8.9673-5.8223-9.0068-.4443-.3281-.539-.9541-.2109-1.3984.3281-.4444.9541-.5391 1.3984-.211.25.1846 6.1231 4.583 6.627 10.4453.1953 2.2686-.4346 4.4278-1.876 6.4395l4.0391.4101c.3633.0372.6787.2706.8203.6075.1416.3379.0879.7256-.1406 1.0117-.0987.123-2.4903 3.0322-9.0703 3.6777-.0332.0029-.0664.0049-.0987.0049z"/><path d="m23.7432 30.3271c-.0684 0-.1387-.0068-.208-.0214-.5411-.1153-.8858-.6455-.7715-1.1856.9521-4.4922 10.2881-7.3164 11.3496-7.6235.5312-.1533 1.0859.1528 1.2383.6821.1543.5303-.1514 1.085-.6817 1.2388-3.5644 1.0337-9.4179 3.6089-9.9492 6.1167-.0996.4707-.5156.7929-.9775.7929z"/><path d="m47.3359 28.9634c-.2802 0-.5595-.1177-.7578-.3472l-5.2529-6.0952c-.3604-.4185-.3135-1.0498.1055-1.4102.417-.3613 1.0478-.3144 1.4101.1045l5.253 6.0952c.3603.4185.3134 1.0499-.1055 1.4102-.1885.1631-.4209.2427-.6524.2427z"/><path d="m39.0352 19.0845c-.5528 0-1-.4478-1-1 0-1.1031-.8975-2-2-2-1.1026 0-2 .8969-2 2 0 .5522-.4473 1-1 1-.5528 0-1-.4478-1-1 0-2.2056 1.7939-4 4-4 2.206 0 4 1.7944 4 4 0 .5522-.4473 1-1 1z"/><path d="m35.6807 54.7666c-1.4112 0-2.2159-.6455-2.6426-1.1865-1.3828-1.753-.7178-4.7481-.6377-5.083.1289-.5371.6748-.8672 1.2031-.7393.5371.127.8692.666.7422 1.2031-.1436.6094-.4033 2.5401.2637 3.3819.1435.1826.4111.4238 1.0713.4238.6611 0 .9287-.2422 1.0722-.4248.6211-.7881.4453-2.6172.2627-3.3799-.1289-.5371.2032-1.0762.7403-1.2051.5361-.1259 1.0761.2032 1.205.7403.0801.3349.7452 3.33-.6377 5.083-.4267.541-1.2314 1.1865-2.6425 1.1865z"/><path d="m54.7598 58.9043c-.0508 0-.1016-.0029-.1524-.0107-.5459-.084-.9209-.5938-.8379-1.1387.0049-.0371.5371-3.6924-.7715-6.9111-.208-.5118.0391-1.0958.5499-1.3038.5117-.206 1.0957.0391 1.3037.5498 1.5205 3.7432.9209 7.7969.8945 7.9678-.0762.4942-.502.8467-.9863.8467z"/><path d="m30.1055 54.7012c-.0284 0-.0576-.001-.0869-.0039-.3663-.0323-.6856-.2627-.8311-.5996l-3.7754-8.7481c-.1279-.2949-.1055-.6338.0596-.9092.165-.2763.4521-.456.7724-.4834l.5528-.0478c.2265-.0225.4521.0381.6406.164 3.1543 2.1026 5.6621 3.4102 8.3828 3.4248 2.7227-.0136 5.2295-1.3222 8.3828-3.4248.1846-.123.4004-.1875.625-.165l.6787.0479c.3282.0224.6241.206.7911.4892.1669.2842.1845.6318.0449.9297l-4.0752 8.748c-.1563.336-.4854.5577-.8555.5772-.3701.0215-.7197-.1689-.9092-.4863l-2.9072-4.8692c-.5469.0928-1.1006.1446-1.667.1524-.0215.0009-.043.0009-.0644.0009-.0079 0-.0137 0-.0205 0h-.0459c-.0147 0-.0284 0-.042 0-.0147 0-.0293 0-.044-.0009-.5293-.0078-1.0469-.0528-1.5576-.1348l-3.2129 4.8877c-.1865.2832-.501.4512-.8359.4512zm-1.8067-7.709 1.9903 4.6094 1.8144-2.7608c-1.2422-.4306-2.4863-1.0586-3.8047-1.8486zm11.3106 1.8232 1.6426 2.752 2.1474-4.6104c-1.3135.791-2.5537 1.4229-3.79 1.8584z"/><path d="m16.8818 58.9053c-.4853 0-.9111-.3535-.9873-.8477-.0263-.1689-.6172-4.164.8633-7.8847.2041-.5147.7861-.7657 1.2979-.5596.5136.2041.7646.7851.5595 1.2978-1.2802 3.2207-.75 6.8067-.7441 6.8418.084.5459-.29 1.0567-.8359 1.1407-.0518.0078-.1036.0117-.1534.0117z"/><path d="m31.9014 58.8623c-.1768 0-.3555-.0469-.5176-.1455-.4727-.2861-.6231-.9014-.3359-1.373l2.2382-3.6885c.2862-.4727.9014-.6231 1.3731-.336.4726.2862.623.9014.3359 1.3731l-2.2383 3.6885c-.1875.3105-.5175.4814-.8554.4814z"/><path d="m39.4609 58.8623c-.3379 0-.6679-.1709-.8554-.4814l-2.2393-3.6895c-.2871-.4717-.1367-1.0869.3359-1.373.4727-.2871 1.0879-.1368 1.3731.3359l2.2393 3.6895c.2871.4716.1367 1.0869-.336 1.373-.1621.0986-.3408.1455-.5176.1455z"/><path d="m23.7217 48.2402c-.5528 0-1-.4472-1-1v-1.9521c0-.5527.4472-1 1-1 .5527 0 1 .4473 1 1v1.9521c0 .5528-.4473 1-1 1z"/><path d="m20.3262 48.2402c-.5528 0-1-.4472-1-1v-1.9521c0-.5527.4472-1 1-1 .5527 0 1 .4473 1 1v1.9521c0 .5528-.4473 1-1 1z"/><path d="m16.9307 48.2402c-.5528 0-1-.4472-1-1v-1.9521c0-.5527.4472-1 1-1 .5527 0 1 .4473 1 1v1.9521c0 .5528-.4473 1-1 1z"/><path d="m47.7949 48.2402c-.5527 0-1-.4472-1-1v-1.9521c0-.5527.4473-1 1-1 .5528 0 1 .4473 1 1v1.9521c0 .5528-.4472 1-1 1z"/><path d="m51.1904 48.2402c-.5527 0-1-.4472-1-1v-1.9521c0-.5527.4473-1 1-1 .5528 0 1 .4473 1 1v1.9521c0 .5528-.4472 1-1 1z"/><path d="m54.5859 48.2402c-.5527 0-1-.4472-1-1v-1.9521c0-.5527.4473-1 1-1 .5528 0 1 .4473 1 1v1.9521c0 .5528-.4472 1-1 1z"/></svg>