<svg viewBox="0 0 72 72" xmlns="http://www.w3.org/2000/svg"><path d="m22 16h28v6h-27l-5-4z" fill="#fff"/><path clip-rule="evenodd" d="m50 21v.6981 34.3019c0 2.2091-1.7909 4-4 4h-20c-2.2091 0-4-1.7909-4-4v-34.3019-.6981z" fill="#a57939" fill-rule="evenodd"/><path d="m35.5 5c-1.933 0-3.5 1.567-3.5 3.5 0 .5368.1208 1.04537.3368 1.5h6.3264c.216-.45463.3368-.9632.3368-1.5 0-1.933-1.567-3.5-3.5-3.5z" fill="#3f3f3f"/><path d="m34 15.5h3v10.5l-3-2z" fill="#9b9b9a"/><path clip-rule="evenodd" d="m50 16.5v-1.5c0-1.6569-1.3431-3-3-3h-22c-1.6569 0-3 1.3431-3 3v1.5z" fill="#3f3f3f" fill-rule="evenodd"/><path clip-rule="evenodd" d="m50 56h-28c0 2.2091 1.7909 4 4 4h20c2.2091 0 4-1.7909 4-4z" fill="#6a462f" fill-rule="evenodd"/><path clip-rule="evenodd" d="m50 46v4c7.732 0 14-6.268 14-14s-6.268-14-14-14v4c5.5228 0 10 4.4772 10 10s-4.4772 10-10 10z" fill="#3f3f3f" fill-rule="evenodd"/><path d="m35.5 5c-1.933 0-3.5 1.567-3.5 3.5 0 .5368.1208 1.04537.3368 1.5h6.3264c.216-.45463.3368-.9632.3368-1.5 0-1.933-1.567-3.5-3.5-3.5z" fill="none" stroke="#3f3f3f" stroke-linecap="round" stroke-width="2"/><path clip-rule="evenodd" d="m22 15c0-1.6569 1.3431-3 3-3h22c1.6569 0 3 1.3431 3 3v2 4.9556 2.6888 31.3556c0 2.2091-1.7909 4-4 4h-20c-2.2091 0-4-1.7909-4-4v-34.5l-4.5-3.5 4.5-2.5z" fill="none" stroke="#000" stroke-linejoin="round" stroke-width="2"/><path d="m50 50h-1v1h1zm0-4v-1h-1v1zm0-24v-1h-1v1zm0 4h-1v1h1zm1 24v-4h-2v4zm12-14c0 7.1797-5.8203 13-13 13v2c8.2843 0 15-6.7157 15-15zm-13-13c7.1797 0 13 5.8203 13 13h2c0-8.2843-6.7157-15-15-15zm1 3v-4h-2v4zm-1 1c4.9706 0 9 4.0294 9 9h2c0-6.0751-4.9249-11-11-11zm9 9c0 4.9706-4.0294 9-9 9v2c6.0751 0 11-4.9249 11-11z"/><g stroke="#000" stroke-linecap="round" stroke-width="2"><path d="m22 15.5h25" fill="none"/><path d="m32.3368 10c-.216-.45463-.3368-.9632-.3368-1.5 0-1.933 1.567-3.5 3.5-3.5s3.5 1.567 3.5 3.5c0 .5368-.1208 1.04537-.3368 1.5" fill="none"/><path d="m34 16v8" fill="none"/><path d="m37 16v10"/><path d="m23 22h8"/><path d="m40 22h10" fill="none"/></g></svg>