<?xml version="1.0" encoding="UTF-8"?>
<svg xmlns="http://www.w3.org/2000/svg" xmlns:xlink="http://www.w3.org/1999/xlink" width="256px" height="256px" viewBox="0 0 256 256" version="1.1">
<g id="surface1">
<path style=" stroke:none;fill-rule:nonzero;fill:rgb(57.254902%,82.745098%,96.078431%);fill-opacity:1;" d="M 195.554688 216.890625 L 195.554688 202.667969 C 195.554688 184.890625 177.777344 170.667969 160 170.667969 C 138.667969 188.445312 117.332031 188.445312 96 170.667969 C 78.222656 170.667969 60.445312 184.890625 60.445312 202.667969 L 60.445312 216.890625 Z M 195.554688 216.890625 "/>
<path style=" stroke:none;fill-rule:nonzero;fill:rgb(81.568627%,81.176471%,80.784314%);fill-opacity:1;" d="M 88.890625 110.222656 C 81.777344 110.222656 78.222656 96 78.222656 85.332031 C 78.222656 71.109375 92.445312 42.667969 128 42.667969 C 163.554688 42.667969 177.777344 67.554688 177.777344 85.332031 C 177.777344 99.554688 174.222656 110.222656 167.109375 110.222656 "/>
<path style=" stroke:none;fill-rule:nonzero;fill:rgb(98.039216%,86.27451%,73.72549%);fill-opacity:1;" d="M 88.890625 110.222656 C 88.890625 138.667969 103.109375 160 127.644531 160 C 152.890625 160 167.109375 138.667969 167.109375 110.222656 C 167.109375 88.890625 156.445312 71.109375 152.890625 67.554688 C 145.777344 60.445312 142.222656 60.445312 142.222656 60.445312 C 135.109375 64 120.890625 64 113.777344 60.445312 C 113.777344 60.445312 110.222656 60.445312 103.109375 67.554688 C 99.554688 71.109375 88.890625 88.890625 88.890625 110.222656 Z M 88.890625 110.222656 "/>
<path style="fill:none;stroke-width:2;stroke-linecap:round;stroke-linejoin:round;stroke:rgb(0%,0%,0%);stroke-opacity:1;stroke-miterlimit:4;" d="M 25.000488 31.000122 C 22.999878 31.000122 22.000122 27 22.000122 23.999634 C 22.000122 19.999512 26.000244 12.000366 36 12.000366 C 45.999756 12.000366 49.999878 18.999756 49.999878 23.999634 C 49.999878 27.999756 49.000122 31.000122 46.999512 31.000122 " transform="matrix(3.555556,0,0,3.555556,0,0)"/>
<path style="fill:none;stroke-width:2;stroke-linecap:round;stroke-linejoin:round;stroke:rgb(0%,0%,0%);stroke-opacity:1;stroke-miterlimit:4;" d="M 17.000244 59.999634 L 17.000244 57.000366 C 17.000244 52.000488 22.000122 48.000366 27 48.000366 C 32.999634 53.000244 39.000366 53.000244 45 48.000366 C 49.999878 48.000366 54.999756 52.000488 54.999756 57.000366 L 54.999756 59.999634 " transform="matrix(3.555556,0,0,3.555556,0,0)"/>
<path style="fill:none;stroke-width:2;stroke-linecap:butt;stroke-linejoin:round;stroke:rgb(0%,0%,0%);stroke-opacity:1;stroke-miterlimit:4;" d="M 25.000488 31.000122 C 25.000488 39.000366 28.999512 45 35.900024 45 C 43.000488 45 46.999512 39.000366 46.999512 31.000122 C 46.999512 25.000488 44.000244 19.999512 43.000488 18.999756 C 40.999878 17.000244 40.000122 17.000244 40.000122 17.000244 C 37.999512 18 34.000488 18 31.999878 17.000244 C 31.999878 17.000244 31.000122 17.000244 28.999512 18.999756 C 27.999756 19.999512 25.000488 25.000488 25.000488 31.000122 Z M 25.000488 31.000122 " transform="matrix(3.555556,0,0,3.555556,0,0)"/>
<path style="fill:none;stroke-width:2;stroke-linecap:round;stroke-linejoin:round;stroke:rgb(0%,0%,0%);stroke-opacity:1;stroke-miterlimit:4;" d="M 37.999512 37.999512 C 36.799805 38.800415 35.400146 38.800415 34.000488 37.999512 " transform="matrix(3.555556,0,0,3.555556,0,0)"/>
<path style="fill:none;stroke-width:2;stroke-linecap:round;stroke-linejoin:round;stroke:rgb(0%,0%,0%);stroke-opacity:1;stroke-miterlimit:4;" d="M 31.000122 36 C 31.000122 36.999756 30.000366 37.999512 30.000366 37.999512 " transform="matrix(3.555556,0,0,3.555556,0,0)"/>
<path style="fill:none;stroke-width:2;stroke-linecap:round;stroke-linejoin:round;stroke:rgb(0%,0%,0%);stroke-opacity:1;stroke-miterlimit:4;" d="M 40.999878 36 C 40.999878 36.999756 41.999634 37.999512 41.999634 37.999512 " transform="matrix(3.555556,0,0,3.555556,0,0)"/>
<path style=" stroke:none;fill-rule:nonzero;fill:rgb(0%,0%,0%);fill-opacity:1;" d="M 148.976562 103.109375 C 148.976562 107.023438 145.777344 110.222656 141.867188 110.222656 C 137.957031 110.222656 134.753906 107.023438 134.753906 103.109375 C 134.753906 99.199219 137.957031 96 141.867188 96 C 145.777344 96 148.976562 99.199219 148.976562 103.109375 "/>
<path style=" stroke:none;fill-rule:nonzero;fill:rgb(0%,0%,0%);fill-opacity:1;" d="M 120.535156 103.109375 C 120.535156 107.023438 117.332031 110.222656 113.421875 110.222656 C 109.511719 110.222656 106.3125 107.023438 106.3125 103.109375 C 106.3125 99.199219 109.511719 96 113.421875 96 C 117.332031 96 120.535156 99.199219 120.535156 103.109375 "/>
</g>
</svg>
