<svg height="64" preserveAspectRatio="none" viewBox="0 0 64 64" width="64" xmlns="http://www.w3.org/2000/svg" xmlns:xlink="http://www.w3.org/1999/xlink"><linearGradient id="a"><stop offset="0" stop-color="#d48538"/><stop offset=".49697" stop-color="#d19c54"/><stop offset="1" stop-color="#a3601f"/></linearGradient><linearGradient id="b" gradientTransform="matrix(.7071 -.7071 .7071 .7071 -24.549299 36.632801)" gradientUnits="userSpaceOnUse" x1="45.012184" x2="41.834221" xlink:href="#a" y1="49.460156" y2="49.460156"/><linearGradient id="c"><stop offset="0" stop-color="#b9b9b9"/><stop offset=".49697" stop-color="#5e5e5e"/><stop offset=".7386762" stop-color="#535353"/><stop offset="1" stop-color="#4d4d4d"/></linearGradient><linearGradient id="d" gradientTransform="matrix(.7071 -.7071 .7071 .7071 -24.549299 36.632801)" gradientUnits="userSpaceOnUse" x1="45.011951" x2="41.833511" xlink:href="#c" y1="68.97879" y2="68.97879"/><linearGradient id="e"><stop offset="0" stop-color="#4a4a4d"/><stop offset="1" stop-opacity="0"/></linearGradient><linearGradient id="f" gradientTransform="matrix(.7071 -.7071 .7071 .7071 -24.549299 36.632801)" gradientUnits="userSpaceOnUse" x1="42.60368" x2="43.343578" xlink:href="#e" y1="16.8023" y2="33.819637"/><linearGradient id="g" gradientTransform="matrix(.7071 -.7071 .7071 .7071 -24.549299 36.632801)" gradientUnits="userSpaceOnUse" x1="43.252983" x2="43.252983" xlink:href="#a" y1="4.277226" y2="26.98197"/><linearGradient id="h" gradientTransform="matrix(.7071 -.7071 .7071 .7071 -24.549299 36.632801)" gradientUnits="userSpaceOnUse" x1="43.102902" x2="43.274323" xlink:href="#e" y1="1.306838" y2="5.249456"/><linearGradient id="i" gradientTransform="matrix(.7071 .7071 -.7071 .7071 29.755899 -24.5361)" gradientUnits="userSpaceOnUse" x1="43.314163" x2="40.135803" xlink:href="#a" y1="51.139725" y2="51.139725"/><linearGradient id="j" gradientTransform="matrix(.7071 .7071 -.7071 .7071 29.755899 -24.5361)" gradientUnits="userSpaceOnUse" x1="43.313503" x2="40.135082" xlink:href="#c" y1="70.658539" y2="70.658539"/><linearGradient id="k" gradientTransform="matrix(.7071 .7071 -.7071 .7071 29.755899 -24.5361)" gradientUnits="userSpaceOnUse" x1="40.905457" x2="41.645336" xlink:href="#e" y1="18.482246" y2="35.499157"/><linearGradient id="l" gradientTransform="matrix(.7071 .7071 -.7071 .7071 29.755899 -24.5361)" gradientUnits="userSpaceOnUse" x1="41.554745" x2="41.554745" xlink:href="#a" y1="5.95663" y2="28.661715"/><linearGradient id="m" gradientTransform="matrix(.7071 .7071 -.7071 .7071 29.755899 -24.5361)" gradientUnits="userSpaceOnUse" x1="41.404694" x2="41.576096" xlink:href="#e" y1="2.986765" y2="6.928972"/><path d="m59.9863014 57.9940987-2.0058021 2.0059013-35.9501992-35.9501991 2.0058003-2.0063z" fill="url(#b)"/><path d="m57.9804688 60.6347656-36.584961-36.5849609 2.640625-2.6411133 36.5849609 36.5854492zm-35.3154297-36.5849609 35.3154297 35.3154297 1.3710938-1.3710938-35.3154297-35.315918z" fill="#5e3d2a"/><path d="m59.9863014 57.9940987-2.0058021 2.0059013-8.3476982-8.3466988 2.0077972-2.0049018z" fill="url(#d)"/><path d="m57.9804688 60.6347656-8.9824219-8.9814453 2.6425781-2.6396484 8.9804688 8.9804688zm-7.7128907-8.9814453 7.7128906 7.7119141 1.3710938-1.3710938-7.7109375-7.7109375z" fill="#5e3d2a"/><path d="m34.0469017 32.4155006-1.6445999 1.6431008-9.4697018-9.4668007 1.6455002-1.6450005z" fill="url(#f)"/><path d="m23.2900009 16.8564491c1.5507984 3.3774414 1.9003983 8.5097504 1.9003983 8.5097504s-5.3163795-.5629997-8.3759499-2.0331993c-4.9013634-2.3559494-12.4375-12.4379807-12.4375-12.4379807l6.4755907-6.4755897s10.1708994 7.4956093 12.4374609 12.4370193z" fill="url(#g)"/><path d="m25.5561523 25.7456055-.4013672-.0424805c-.2197266-.0229492-5.4101563-.5859375-8.4873047-2.0644531-4.9194335-2.3652344-12.2524413-12.1264649-12.5620116-12.5410156l-.1757813-.2348633 6.8891602-6.8891602.2348633.1728516c.4179688.3081055 10.2675781 7.6049805 12.5444336 12.5688477 1.5585938 3.3945313 1.9160156 8.4155273 1.9301758 8.6279297zm-20.7304687-14.8198242c1.1630859 1.5209961 7.7758789 10.0063477 12.1357422 12.1020508 2.4863281 1.1948242 6.5605469 1.7871094 7.855957 1.9521484-.1201172-1.2739258-.5791016-5.246582-1.8354492-7.9819336-2.0151367-4.394043-10.5698242-10.9790039-12.0976563-12.1313477z" fill="#563623"/><path d="m13.7705097 6.9751-6.8085999 6.8085905-1.9150396-1.9135733 6.8095751-6.809567z" fill="url(#h)"/><path d="m12.3808594 5.2431598-7.1513696 7.1513715-1.2158198-1.6127911 6.7343797-6.7338901z" fill="#bababa"/><path d="m5.2294898 12.3945313 7.1513696-7.1513715-.8154297-.5981398s.5224609.8603501-6.3359399 7.7495113z" fill="#848484"/><path d="m4.0615201 10.7338896.4560599.6054659 6.2783203-7.3393555z" fill="#fff"/><path d="m6.0058599 59.9863014-2.0058599-2.0058021 35.9501991-35.9501992 2.0068016 2.0058003z" fill="url(#i)"/><path d="m6.0058594 60.6210938-2.640625-2.640625 36.5849609-36.5849609 2.6416016 2.640625zm-1.3710938-2.640625 1.3710938 1.3710938 35.3164063-35.3154297-1.3720703-1.3710938z" fill="#5e3d2a"/><path d="m6.0058599 59.9863014-2.0058599-2.0058021 8.3466797-8.3476982 2.0048799 2.0077972z" fill="url(#j)"/><path d="m6.0058594 60.6210938-2.640625-2.640625 8.9814453-8.9824219 2.6391602 2.6425781zm-1.3710938-2.640625 1.3710938 1.3710938 7.7114258-7.7109375-1.3706055-1.3730469z" fill="#5e3d2a"/><path d="m31.5849991 34.0469017-1.6435986-1.6445999 9.4667988-9.4697018 1.6455002 1.6455002z" fill="url(#k)"/><path d="m47.1436005 23.2900009c-3.3769989 1.5507984-8.5098 1.9003983-8.5098 1.9003983s.5634995-5.3163795 2.0331993-8.3759499c2.3563995-4.9013634 12.4384995-12.4375 12.4384995-12.4375l6.4756012 6.4755902c0 .0000005-7.4961014 10.1708999-12.4375 12.4374614z" fill="url(#l)"/><path d="m38.2539063 25.5561523.0429688-.4013672c.0234375-.2197266.5869141-5.4101563 2.0644531-8.4873047 2.3652344-4.9194336 12.1269531-12.2524414 12.5410156-12.5620117l.2353516-.1757813 6.8886719 6.8891602-.1728516.2348633c-.3076172.4179688-7.6044922 10.2675781-12.5683594 12.5444336-3.3945313 1.5585938-8.4160156 1.9160156-8.6279297 1.9301758zm14.821289-20.7304687c-1.5214844 1.1630859-10.0068359 7.7758789-12.1025391 12.1357422-1.1943359 2.4863281-1.7880859 6.5605469-1.953125 7.855957 1.2744141-.1201172 5.2470703-.5791016 7.9824219-1.8354492 4.3945313-2.015625 10.9794922-10.5698242 12.1318359-12.0976563z" fill="#563725"/><path d="m57.0253983 13.7705097-6.8085976-6.8085999 1.9131012-1.9150396 6.809597 6.8095751z" fill="url(#m)"/><path d="m58.7568016 12.3808594-7.1513023-7.1513696 1.6133003-1.2158198 6.7332992 6.7343797z" fill="#bababa"/><path d="m51.6054993 5.2294898 7.1513023 7.1513696.5986977-.8154297s-.8604012.5224609-7.75-6.3359399z" fill="#848484"/><path d="m53.2666016 4.0615201-.6055031.4560599 7.3389015 6.2783203z" fill="#fff"/></svg>