<svg viewBox="0 0 72 72" xmlns="http://www.w3.org/2000/svg"><path d="m62.92 35.0029a1.8786 1.8786 0 0 0 -1.8742-2.0029h-49.9929a1.9727 1.9727 0 0 0 -1.97 2.1313c.857 9.7287 7.53 17.9843 16.7945 21.7238v5.4866a1.72 1.72 0 0 0 1.7672 1.6583h16.7108a1.72 1.72 0 0 0 1.767-1.6583v-4.8424c9.712-3.3783 16.0713-12.1093 16.7976-22.4964z" fill="#d22f27"/><g fill="none" stroke-linecap="round" stroke-linejoin="round"><path d="m61.4336 21h-44" stroke="#000" stroke-width="2"/><path d="m61.4336 13h-44" stroke="#000" stroke-width="2"/><path d="m34.2773 10.8125.1563 22.1875" stroke="#000" stroke-width="1.8409"/><path d="m28.2773 10.8125.1563 22.1875" stroke="#000" stroke-width="1.8409"/><path d="m21.2773 10.8125.1563 22.1875" stroke="#000" stroke-width="1.8409"/><path d="m62.92 35.0029a1.8786 1.8786 0 0 0 -1.8742-2.0029h-49.9929a1.9727 1.9727 0 0 0 -1.97 2.1313c.857 9.7287 7.53 17.9843 16.7945 21.7238v5.4866a1.72 1.72 0 0 0 1.7672 1.6583h16.7108a1.72 1.72 0 0 0 1.767-1.6583v-4.8424c9.712-3.3783 16.0713-12.1093 16.7976-22.4964z" stroke="#000" stroke-width="2"/><path d="m34.2773 10.8125.1563 22.1875" stroke="#f1b31c" stroke-width="1.8409"/><path d="m28.2773 10.8125.1563 22.1875" stroke="#f1b31c" stroke-width="1.8409"/><path d="m21.2773 10.8125.1563 22.1875" stroke="#f1b31c" stroke-width="1.8409"/></g></svg>