<svg viewBox="0 0 72 72" xmlns="http://www.w3.org/2000/svg"><ellipse cx="35.921" cy="37.3" fill="#fff" rx="11.3137" ry="5.6569"/><path d="m46.9415 35.7854c.5998.5178.9795 1.2837.9795 2.1382 0 1.5594-1.2643 2.8236-2.8235 2.8236 0 1.5593-1.2643 2.8235-2.8236 2.8235-.533 0-1.026-.1564-1.4514-.4131.1258.8535-.1304 1.7527-.7874 2.4096-1.1026 1.1027-2.8904 1.1027-3.9929 0-.0461-.046-.0785-.0994-.1205-.1475-.5177.5924-1.2698.9745-2.1183.9745-1.5593 0-2.8236-1.2642-2.8236-2.8235 0-.1419.0216-.278.0417-.4143-.4256.2575-.9195.4143-1.4534.4143-1.5593 0-2.8236-1.2642-2.8236-2.8235-.7225 0-1.4451-.2758-1.9964-.8271-1.1028-1.1026-1.1028-2.8904 0-3.993" fill="#fff"/><path d="m25.0245 20.3199c.5059-6.6438 5.8965-11.0199 10.8965-11.0199 6 0 9.0025 1.39 10.8816 2.3793 10.4928 5.524 8.7806 17.3451 7.9726 22.6407.0496-.0038.0952-.02.1458-.02.7418 0 1.3818.4086 1.7272 1.0084.6921-.0009 1.366.3491 1.7369.9916.3708.6424.3372 1.4011-.0098 2 .347.5989.3806 1.3575.0098 2-.3709.6424-1.0447.9924-1.7368.9915-.3454.5999-.9855 1.0085-1.7273 1.0085s-1.382-.4086-1.7273-1.0085c-.6922.0009-1.366-.3491-1.7368-.9915-.3709-.6425-.3372-1.4011.0097-2-.3469-.5989-.3806-1.3576-.0097-2 .0542-.094.127-.1681.1933-.2494l-1.0313-.4833z" fill="#ea5a47"/><path d="m25.3932 20.6669 19.5278-.3669s4-3-1-10c14 4 11.0735 22.8005 11.0837 22.9368-.0188-.0256-.0771.0845-.2295 1.0832.0496-.0038.0952-.02.1458-.02l-3.4641 2c.0542-.094.127-.1681.1933-.2494l-1.0597.5655z" fill="#d22f27"/><path d="m55.0047 33.2368c.0127.0174.0071.0947 0 0z" fill="#d22f27"/><path d="m50.921 38.3c0 2.2091 1.7908 4 4 4 2.2091 0 4-1.7909 4-4s-1.7909-4-4-4c-2 1-2 1-3.2961 1.7331-.444.6443-.7039 1.4253-.7039 2.2669z" fill="#fff"/><path d="m16.0537 58.5598c-2.1156-1.8336-3.4537-4.5404-3.4537-7.5597 0-4.503 3.9885-7.646 7.6297-8.6534 1.3738-.38 2.8394.0319 3.7804 1.1026 2.1982 2.5012 6.0466 7.9954 4.5899 14.5507" fill="#6a462f"/><path d="m46.7431 20.3h-21.6442c-.6506 0-1.1779.4175-1.1779.9325v3.135c0 .515.5273.9325 1.1779.9325h.2961 21.3481c.6505 0 1.1779-.4175 1.1779-.9325v-3.135c0-.515-.5274-.9325-1.1779-.9325z" fill="#fff"/><path d="m54.796 60.9s2-13.9-10-13.9c-3.1919 2.1279-5.9264 3.5984-9 3.5921h.125c-3.0736.0063-5.8082-1.4642-9-3.5921-12 0-10 13.9-10 13.9" fill="#ea5a47"/><path d="m44.796 47c-3.1699 2.1133-4.875 3-8.9375 3.5886 13.0625.4114 13.0625 6.3114 13.8246 10.3114h5.1129s2-13.9-10-13.9z" fill="#d22f27"/><path d="m38.921 61v-5.9095c5.5076-.3459 9.5193-2.7944 10.9741-7.0259-1.3295-.6591-2.9951-1.0646-5.0991-1.0646-3.1699 2.1133-5.8895 3.5746-8.9375 3.5886-3.048-.014-5.7676-1.4753-8.9375-3.5886-2.0474 0-3.6792.3846-4.991 1.0124 2.4717 4.1207 6.142 6.3653 10.991 6.9589v6.0287" fill="#fff"/><path d="m12.6 51.0001c0-4.503 3.9885-7.646 7.6297-8.6534 1.3738-.38 2.8394.0319 3.7804 1.1026 2.1982 2.5012 6.0466 7.9954 4.5899 14.5507 0 0-9-9-11-9" fill="#a57939"/><path d="m46.5401 25.3207c.4651 1.5491.7195 3.2271.7195 4.9793 0 1.7891-.3386 5-.7492 5.077-5.5894-3.077-12.7152-4.7519-21.1523.0855-.4371-1.1625-.7757-3.341-.7757-5.1625 0-1.4757.1804-2.8987.5152-4.2364" fill="#fadcbc"/><path d="m46.9415 35.7854c.5998.5178.9795 1.2837.9795 2.1382 0 1.5594-1.2643 2.8236-2.8235 2.8236 0 1.5593-1.2643 2.8235-2.8236 2.8235-.533 0-1.026-.1564-1.4514-.4131.1258.8535-.1304 1.7527-.7874 2.4096-1.1026 1.1027-2.8904 1.1027-3.9929 0-.0461-.046-.0785-.0994-.1205-.1475-.5177.5924-1.2698.9745-2.1183.9745-1.5593 0-2.8236-1.2642-2.8236-2.8235 0-.1419.0216-.278.0417-.4143-.4256.2575-.9195.4143-1.4534.4143-1.5593 0-2.8236-1.2642-2.8236-2.8235-.7225 0-1.4451-.2758-1.9964-.8271-1.1028-1.1026-1.1028-2.8904 0-3.993" style="fill:none;stroke:#000;stroke-linecap:round;stroke-linejoin:round;stroke-miterlimit:10;stroke-width:2"/><path d="m16.0537 58.5598c-2.1156-1.8336-3.4537-4.5404-3.4537-7.5597 0-4.503 3.9885-7.646 7.6297-8.6534 1.3738-.38 2.8394.0319 3.7804 1.1026 2.1982 2.5012 6.0466 7.9954 4.5899 14.5507" style="fill:none;stroke:#000;stroke-linecap:round;stroke-linejoin:round;stroke-miterlimit:10;stroke-width:2"/><path d="m46.5401 25.3207c.4651 1.5491.7195 3.2271.7195 4.9793 0 1.7891-.3386 5-.7492 5.077-5.5894-3.077-12.7152-4.7519-21.1523.0855-.4371-1.1625-.7757-3.341-.7757-5.1625 0-1.4757.1804-2.8987.5152-4.2364" style="fill:none;stroke:#000;stroke-linecap:round;stroke-linejoin:round;stroke-miterlimit:10;stroke-width:2"/><path d="m29.9208 28.9392c0 1.1045.8965 2 2 2s2-.8955 2-2c0-1.1035-.8965-2-2-2s-2 .8965-2 2"/><path d="m37.9208 28.9392c0 1.1045.8965 2 2 2s2-.8955 2-2c0-1.1035-.8965-2-2-2s-2 .8965-2 2"/><path d="m35.921 38.9416c1.1518 0 2.3037-.2861 3.4472-.8579.4942-.2471.6944-.8477.4473-1.3418-.2466-.4937-.8462-.6943-1.3418-.4473-1.7178.8594-3.3877.8594-5.1055 0-.4946-.247-1.0947-.0464-1.3417.4473-.2471.4941-.0469 1.0947.4472 1.3418 1.1436.5718 2.2954.8579 3.4473.8579z"/><g style="fill:none;stroke:#000;stroke-linecap:round;stroke-linejoin:round;stroke-miterlimit:10;stroke-width:2"><path d="m46.8175 20.3199c-.0737-.9671-.1899-1.8861-.359-2.7506"/><path d="m46.7431 20.3h-21.6442c-.6506 0-1.1779.4175-1.1779.9325v3.135c0 .515.5273.9325 1.1779.9325h.2961 21.3481c.6505 0 1.1779-.4175 1.1779-.9325v-3.135c0-.515-.5274-.9325-1.1779-.9325z"/><path d="m25.0245 20.3199c.5059-6.6438 5.8965-11.0199 10.8965-11.0199 6 0 9.0025 1.39 10.8816 2.3793 10.4928 5.524 8.7806 17.3451 7.9726 22.6407.0496-.0038.0952-.02.1458-.02.7418 0 1.3818.4086 1.7272 1.0084.6921-.0009 1.366.3491 1.7369.9916.3708.6424.3372 1.4011-.0098 2 .347.5989.3806 1.3575.0098 2-.3709.6424-1.0447.9924-1.7368.9915-.3454.5999-.9855 1.0085-1.7273 1.0085s-1.382-.4086-1.7273-1.0085c-.6922.0009-1.366-.3491-1.7368-.9915-.3709-.6425-.3372-1.4011.0097-2-.3469-.5989-.3806-1.3576-.0097-2 .0542-.094.127-.1681.1933-.2494l-1.0313-.4833"/><path d="m16.0537 58.5598c-2.1156-1.8336-3.4537-4.5404-3.4537-7.5597 0-4.503 3.9885-7.646 7.6297-8.6534 1.3738-.38 2.8394.0319 3.7804 1.1026 2.1982 2.5012 6.0466 7.9954 4.5899 14.5507 0 0-9-9-11-9"/><path d="m25.0245 20.3199c.5059-6.6438 5.8965-11.0199 10.8965-11.0199 6 0 9.0025 1.39 10.8816 2.3793 10.4928 5.524 8.7806 17.3451 7.9726 22.6407.0496-.0038.0952-.02.1458-.02.7418 0 1.3818.4086 1.7272 1.0084.6921-.0009 1.366.3491 1.7369.9916.3708.6424.3372 1.4011-.0098 2 .347.5989.3806 1.3575.0098 2-.3709.6424-1.0447.9924-1.7368.9915-.3454.5999-.9855 1.0085-1.7273 1.0085s-1.382-.4086-1.7273-1.0085c-.6922.0009-1.366-.3491-1.7368-.9915-.3709-.6425-.3372-1.4011.0097-2-.3469-.5989-.3806-1.3576-.0097-2 .0542-.094.127-.1681.1933-.2494l-1.0313-.4833"/><path d="m16.92 59.9981s-.97-6.3 2.49-10.13"/><path d="m54.8 59.9981s1.36-8.85-4.9-11.93c-.17-.08-.34-.16-.51-.24-.18-.07-.36-.14-.55-.21-.19-.06-.38-.12-.58-.18-.4-.11-.82-.2-1.26-.28-.68-.1-1.41-.16-2.2-.16-.6.4-1.18.78-1.75 1.12-.2.12-.39.24-.59.35-.18.1-.36.2-.54.3-.18.11-.36.21-.54.3-.37.19-.74.36-1.11.52s-.73.3-1.1.42c-.18.06-.36.12-.55.17-.14.04-.28.08-.42.11-.2.05-.39.09-.58.13-.06.01-.13.02-.19.03-.32.06-.65.1-.98.12-.19.01-.39.02-.59.02-.05 0-.09 0-.14 0-.18 0-.35-.01-.53-.03-.12 0-.24-.02-.36-.03-.18-.02-.36-.04-.54-.08-.09-.01-.19-.03-.28-.05-.18-.03-.35-.07-.53-.11-.03-.01-.07-.02-.1-.03-.1-.02-.2-.05-.3-.08-.18-.05-.36-.11-.53-.17-.37-.12-.73-.26-1.1-.42-1.47-.63-2.94-1.53-4.53-2.59-.12 0-.24 0-.35.01"/><path d="m28.88 53.9881c1.24.48 2.59.81 4.04.98v5.03"/><path d="m38.92 59.9981v-4.91c5.51-.34 9.52-2.79 10.98-7.02-.17-.08-.34-.16-.51-.24-.18-.07-.36-.14-.55-.21-.19-.06-.38-.12-.58-.18-.4-.11-.82-.2-1.26-.28-.68-.1-1.41-.16-2.2-.16-.6.4-1.18.78-1.75 1.12-.2.12-.39.24-.59.35-.18.11-.36.22-.54.3-.18.11-.36.21-.54.3-.37.19-.74.36-1.11.52s-.73.3-1.1.42c-.18.07-.36.13-.55.17-.14.04-.28.08-.42.11-.2.05-.39.09-.58.13-.06.01-.13.02-.19.03-.32.06-.65.1-.98.12-.19.01-.39.02-.59.02-.05 0-.09 0-.14 0-.18 0-.35-.01-.53-.03-.12 0-.24-.02-.36-.03-.18-.02-.36-.04-.54-.08-.09-.01-.19-.03-.28-.05-.21-.04-.42-.09-.63-.14-.1-.02-.2-.05-.3-.08-.18-.05-.36-.11-.53-.17-.37-.12-.73-.26-1.1-.42-1.47-.63-2.94-1.53-4.53-2.59-.12 0-.24 0-.35.01"/><path d="m12.6 51.0001c0-4.503 3.9885-7.646 7.6297-8.6534 1.3738-.38 2.8394.0319 3.7804 1.1026 2.1982 2.5012 6.0466 7.9954 4.5899 14.5507 0 0-9-9-11-9"/></g></svg>